<svg width="37" height="37" viewBox="0 0 37 37" fill="none" xmlns="http://www.w3.org/2000/svg">
<path d="M33.0357 0H3.96429C2.91289 0 1.90456 0.417665 1.16111 1.16111C0.417665 1.90456 0 2.91289 0 3.96429L0 33.0357C0 34.0871 0.417665 35.0954 1.16111 35.8389C1.90456 36.5823 2.91289 37 3.96429 37H15.2997V24.4208H10.0965V18.5H15.2997V13.9873C15.2997 8.8544 18.3555 6.01911 23.0358 6.01911C25.2773 6.01911 27.6212 6.41884 27.6212 6.41884V11.4568H25.0386C22.494 11.4568 21.7003 13.0359 21.7003 14.6555V18.5H27.3808L26.4723 24.4208H21.7003V37H33.0357C34.0871 37 35.0954 36.5823 35.8389 35.8389C36.5823 35.0954 37 34.0871 37 33.0357V3.96429C37 2.91289 36.5823 1.90456 35.8389 1.16111C35.0954 0.417665 34.0871 0 33.0357 0V0Z" fill="white"/>
</svg>
