<svg width="37" height="37" viewBox="0 0 37 37" fill="none" xmlns="http://www.w3.org/2000/svg">
<path d="M24.42 18.5C24.42 19.6709 24.0728 20.8154 23.4223 21.789C22.7718 22.7625 21.8472 23.5213 20.7655 23.9694C19.6837 24.4174 18.4934 24.5347 17.3451 24.3062C16.1967 24.0778 15.1419 23.514 14.3139 22.6861C13.486 21.8581 12.9222 20.8033 12.6938 19.6549C12.4653 18.5066 12.5826 17.3163 13.0306 16.2345C13.4787 15.1528 14.2375 14.2282 15.211 13.5777C16.1846 12.9272 17.3291 12.58 18.5 12.58C20.0695 12.5818 21.5742 13.2061 22.6841 14.3159C23.7939 15.4258 24.4182 16.9305 24.42 18.5ZM37 10.36V26.64C36.9969 29.3867 35.9044 32.02 33.9622 33.9622C32.02 35.9044 29.3867 36.9969 26.64 37H10.36C7.61332 36.9969 4.98003 35.9044 3.03784 33.9622C1.09564 32.02 0.00313369 29.3867 0 26.64V10.36C0.00313369 7.61332 1.09564 4.98003 3.03784 3.03784C4.98003 1.09564 7.61332 0.00313369 10.36 0H26.64C29.3867 0.00313369 32.02 1.09564 33.9622 3.03784C35.9044 4.98003 36.9969 7.61332 37 10.36V10.36ZM27.38 18.5C27.38 16.7437 26.8592 15.0268 25.8834 13.5665C24.9077 12.1062 23.5208 10.9681 21.8982 10.296C20.2756 9.62384 18.4901 9.44799 16.7676 9.79063C15.045 10.1333 13.4628 10.979 12.2209 12.2209C10.979 13.4628 10.1333 15.045 9.79063 16.7676C9.44799 18.4901 9.62384 20.2756 10.296 21.8982C10.9681 23.5208 12.1062 24.9077 13.5665 25.8834C15.0268 26.8592 16.7437 27.38 18.5 27.38C20.8543 27.3774 23.1114 26.4409 24.7762 24.7762C26.4409 23.1114 27.3774 20.8543 27.38 18.5V18.5ZM30.34 8.88C30.34 8.44093 30.2098 8.01171 29.9659 7.64663C29.7219 7.28156 29.3752 6.99701 28.9696 6.82899C28.5639 6.66096 28.1175 6.617 27.6869 6.70266C27.2563 6.78832 26.8607 6.99975 26.5502 7.31022C26.2398 7.6207 26.0283 8.01626 25.9427 8.4469C25.857 8.87754 25.901 9.32391 26.069 9.72956C26.237 10.1352 26.5216 10.4819 26.8866 10.7259C27.2517 10.9698 27.6809 11.1 28.12 11.1C28.7088 11.1 29.2734 10.8661 29.6898 10.4498C30.1061 10.0334 30.34 9.46878 30.34 8.88Z" fill="white"/>
</svg>
