<svg width="37" height="37" viewBox="0 0 37 37" fill="none" xmlns="http://www.w3.org/2000/svg">
<path d="M33.5312 0H3.46875C1.56094 0 0 1.56094 0 3.46875V33.5312C0 35.4391 1.56094 37 3.46875 37H33.5312C35.4391 37 37 35.4391 37 33.5312V3.46875C37 1.56094 35.4391 0 33.5312 0ZM13.875 30.0625H9.25V13.875H13.875V30.0625ZM11.5625 11.5625C10.9492 11.5625 10.361 11.3189 9.92732 10.8852C9.49364 10.4515 9.25 9.86331 9.25 9.25C9.25 8.63669 9.49364 8.04849 9.92732 7.61482C10.361 7.18114 10.9492 6.9375 11.5625 6.9375C12.1758 6.9375 12.764 7.18114 13.1977 7.61482C13.6314 8.04849 13.875 8.63669 13.875 9.25C13.875 9.86331 13.6314 10.4515 13.1977 10.8852C12.764 11.3189 12.1758 11.5625 11.5625 11.5625ZM30.0625 30.0625H25.4375V20.8125C25.4375 20.1992 25.1939 19.611 24.7602 19.1773C24.3265 18.7436 23.7383 18.5 23.125 18.5C22.5117 18.5 21.9235 18.7436 21.4898 19.1773C21.0561 19.611 20.8125 20.1992 20.8125 20.8125V30.0625H16.1875V13.875H20.8125V16.7448C21.7653 15.4359 23.2268 13.875 24.8594 13.875C27.7361 13.875 30.0625 16.4627 30.0625 19.6562V30.0625Z" fill="white"/>
</svg>
