<svg width="100" height="116" viewBox="0 0 100 116" fill="none" xmlns="http://www.w3.org/2000/svg">
<path d="M48.8794 16.7321C49.1842 16.5558 49.5919 16.3685 50.0731 16.3685C50.3853 16.3685 50.7305 16.4493 51.0978 16.6623C53.746 18.2013 56.4016 19.7256 59.0571 21.2535C60.7356 22.2195 62.4179 23.1855 64.0964 24.1515C66.0541 25.2791 68.0081 26.414 69.9621 27.5453C74.4908 30.1714 79.1738 32.8857 83.8054 35.5082C84.6722 35.9967 85.2269 36.5183 85.5538 37.1721L98.9343 28.6618C99.0298 28.5957 99.1326 28.5333 99.2355 28.4709C99.2685 28.4525 99.3016 28.4341 99.3347 28.4121C99.3934 28.379 99.4522 28.3423 99.5146 28.3092C99.3677 28.2248 99.2024 28.1513 99.0298 28.0742C98.8388 27.9897 98.6405 27.8979 98.4495 27.7877C95.4377 26.0357 92.3597 24.28 89.381 22.5794C87.0376 21.2425 84.698 19.9055 82.362 18.5576C79.464 16.8827 76.5293 15.1674 73.6901 13.5036C71.4313 12.1813 69.1761 10.8627 66.9136 9.54783C64.5004 8.14844 62.0836 6.75272 59.6705 5.36067C56.7321 3.66744 53.7938 1.97054 50.8628 0.262622C50.2604 -0.0899804 49.8564 -0.0863067 49.2614 0.266296C45.4819 2.51781 41.629 4.74362 38.2278 6.70497C34.834 8.66265 31.4365 10.6167 28.0391 12.5707C25.7802 13.8672 23.525 15.1674 21.2698 16.464C20.021 17.1839 18.7722 17.9001 17.5234 18.6163C13.9239 20.6842 10.2032 22.8182 6.56702 24.9595C5.84345 25.3856 5.10151 25.8006 4.38162 26.201C3.13649 26.8952 1.8583 27.6077 0.649902 28.4011C0.83355 28.4929 1.0172 28.5921 1.1935 28.6912C1.22655 28.7096 1.25961 28.7316 1.29634 28.75C1.48366 28.8565 1.66731 28.963 1.84728 29.0732C1.90238 29.1063 1.96114 29.1393 2.01624 29.1761C2.2109 29.2973 2.40557 29.4148 2.60024 29.536C3.00793 29.7894 3.43032 30.0539 3.85271 30.2926C5.20068 31.0566 6.54131 31.8316 7.87826 32.6066C9.84329 33.7452 11.8708 34.9205 13.8909 36.0335C14.0011 36.0959 14.1002 36.1547 14.1884 36.2171L14.7136 36.5146C14.8348 36.4007 14.9744 36.2979 15.136 36.2024C18.0523 34.5312 21.0127 32.816 23.874 31.1595C25.6039 30.1567 27.3375 29.1504 29.0712 28.1513C32.9388 25.9182 36.8064 23.6924 40.674 21.4629C43.4067 19.8872 46.143 18.3115 48.8794 16.7321Z" fill="white"/>
<path d="M99.9963 64.1349C99.9963 59.1581 99.9963 54.1849 99.9926 49.2081C99.989 44.492 99.9779 39.776 99.9669 35.0599L99.9559 29.3228C99.8163 29.3999 99.6767 29.488 99.5372 29.5835L85.8261 38.3031V77.3796C85.8261 77.3796 85.8738 78.4484 85.569 78.6247L82.9097 80.1453C80.9557 81.2619 79.0017 82.3785 77.0514 83.5024C75.7401 84.259 74.4326 85.0193 73.1287 85.7833L72.541 86.1286C70.6017 87.2598 68.5081 88.4719 66.3705 89.6766L63.5974 91.278C62.6388 91.8473 61.6471 92.435 60.637 92.9713L51.7044 98.106C51.506 98.2346 51.2857 98.3558 51.0212 98.499L50.5474 98.7708V101.753C50.5474 105.948 50.5474 110.142 50.5327 114.333C50.5327 114.403 50.5437 114.48 50.5511 114.557C50.5584 114.612 50.5658 114.678 50.5694 114.756C50.5694 114.763 50.5694 114.77 50.5694 114.778C50.5731 114.855 50.5768 114.935 50.5694 115.024C50.5694 115.027 50.5694 115.031 50.5694 115.035C51.5648 114.425 52.652 113.779 53.9559 113.022C62.5029 108.078 71.0535 103.142 79.6041 98.2052L83.2844 96.0786C88.5771 93.019 94.0498 89.8566 99.46 86.7934C99.9375 86.5252 100 86.3526 100 85.8164C99.9963 78.588 99.9963 71.3596 99.9963 64.1349Z" fill="white"/>
<path d="M70.1792 46.9383C70.1792 46.8465 70.1829 46.7547 70.1902 46.6629C70.1902 46.6592 70.1902 46.6555 70.1902 46.6519C69.9662 46.762 69.7311 46.8833 69.485 47.0155C69.2757 47.1257 69.0663 47.2432 68.8606 47.3571C68.5411 47.537 68.2215 47.717 67.9056 47.9043L66.7413 48.5948C66.3006 48.8593 65.8561 49.1237 65.4117 49.3845C65.1509 49.5351 64.8902 49.6857 64.6294 49.8326C63.1198 50.6811 61.5955 51.5736 60.1227 52.4367C58.9841 53.1052 57.8491 53.77 56.7032 54.4238C55.223 55.2686 53.7097 56.1097 52.2442 56.9177C51.6712 57.2336 51.1019 57.5495 50.5289 57.869V61.8725C50.5326 67.9476 50.5326 74.0227 50.5326 80.0977C50.5326 80.1602 50.5363 80.2263 50.5436 80.2924C50.551 80.3805 50.5546 80.4834 50.5546 80.5936C50.5546 80.5972 50.5546 80.6009 50.5546 80.6046C50.8448 80.5128 51.1313 80.3107 51.4876 80.05C51.6969 79.8957 51.9173 79.7378 52.1487 79.6055C55.5792 77.6625 59.0502 75.6498 62.4036 73.6994C64.7212 72.3515 67.0425 71.0035 69.3675 69.6702C70.0249 69.2919 70.2049 69.0091 70.2012 68.3553C70.1719 63.2756 70.1755 58.1115 70.1755 53.1162C70.1792 51.0631 70.1829 49.0025 70.1792 46.9383Z" fill="white"/>
<path d="M49.4307 114.326C49.4453 110.132 49.4454 105.941 49.4454 101.746V98.7603C49.1111 98.562 48.7805 98.3636 48.4463 98.1653C47.5611 97.6364 46.6502 97.0891 45.743 96.5676C41.7211 94.2463 37.6956 91.9286 33.6664 89.6073L29.9126 87.4476C29.9126 87.488 29.9163 87.5358 29.92 87.5799C29.9236 87.679 29.931 87.7782 29.931 87.8737C29.9273 89.2951 29.9347 90.7166 29.9383 92.1417C29.9493 95.3077 29.964 98.584 29.8832 101.805C29.8428 103.421 30.2248 104.149 31.3451 104.575L31.4479 104.611C31.5654 104.652 31.7013 104.699 31.8372 104.777C33.7362 105.871 35.6351 106.966 37.534 108.06C39.7157 109.316 41.8938 110.573 44.0755 111.829C44.6558 112.163 45.2288 112.508 45.8018 112.853C46.9882 113.57 48.2112 114.308 49.4747 114.914C49.4711 114.844 49.46 114.749 49.4527 114.683C49.4417 114.558 49.4307 114.436 49.4307 114.326Z" fill="white"/>
<path d="M13.6194 37.1578C13.6047 37.1504 13.59 37.1394 13.5753 37.1284C13.5092 37.0806 13.4357 37.0366 13.3549 36.9925C11.3275 35.8759 9.29265 34.6969 7.32396 33.5546C5.987 32.7796 4.65005 32.0083 3.30575 31.2443C2.865 30.9946 2.43159 30.7264 2.01654 30.4657C1.34439 30.0469 0.70163 29.6466 0.0258076 29.3197C0.0221346 29.4189 0.0184629 29.518 0.0184629 29.6135C0.01479 41.973 0.0147892 54.3325 0.0147892 66.6956V74.4382C0.0184621 78.1442 0.0184618 81.9788 9.7064e-05 85.7509C-0.00357588 86.3238 0.0955933 86.5112 0.536347 86.7499C1.97247 87.5322 3.40125 88.3807 4.78228 89.1998C5.4985 89.6258 6.2184 90.0519 6.93829 90.4706C8.41482 91.3264 9.89869 92.1785 11.3826 93.0306C12.2861 93.5485 13.1897 94.0701 14.0932 94.588C14.0969 94.5917 14.1042 94.5953 14.1079 94.599C14.0969 94.4411 14.1005 94.2905 14.1042 94.1435C14.1042 94.0774 14.1079 94.0113 14.1079 93.9452L14.0969 59.2726C14.0969 59.1918 14.1152 59.1147 14.1446 59.0449V55.4968C14.1446 53.686 14.1446 51.4272 14.1446 49.1499C14.1446 48.9443 14.1446 48.7349 14.1446 48.5292C14.1446 47.9085 14.1446 47.2878 14.1446 46.6781C14.1446 45.4586 14.1446 44.2833 14.1446 43.2145C14.1446 43.0345 14.1446 42.8582 14.1446 42.6892C14.1446 42.5166 14.1446 42.3513 14.1446 42.186C14.1446 40.7022 14.1446 39.5195 14.1446 38.8694V38.3441C14.1446 37.9842 14.174 37.705 14.2107 37.4957L13.6194 37.1578Z" fill="white"/>
<path d="M33.3249 71.1501C34.2872 71.7121 35.2458 72.2741 36.2081 72.836C38.871 74.397 41.6257 76.0131 44.3657 77.5484C44.9608 77.8826 45.5558 78.2352 46.1288 78.5805C47.2013 79.2233 48.3031 79.8844 49.4528 80.4133C49.4528 80.3986 49.4528 80.3839 49.4491 80.3692C49.4418 80.2774 49.4381 80.1893 49.4381 80.1011C49.4418 74.026 49.4381 67.951 49.4344 61.8759V57.8761L49.1773 57.7365C48.7696 57.5161 48.3656 57.2958 47.9652 57.068C42.981 54.1958 38.0005 51.3199 33.0237 48.4403C33.0163 48.4366 33.0053 48.4329 32.998 48.4256L29.8503 46.6663C29.8429 46.725 29.8392 46.7875 29.8392 46.8536V47.1841C29.8429 50.1078 29.8392 68.9647 29.8392 68.9647C29.8392 68.9941 29.8466 69.0419 29.8539 69.0823L30.8089 69.6516C31.6427 70.1548 32.4801 70.6579 33.3249 71.1501Z" fill="white"/>
<path d="M56.1593 53.4728C57.3015 52.819 58.4328 52.1542 59.5678 51.4894C61.0443 50.6226 62.5722 49.7301 64.0928 48.8743C64.3499 48.731 64.607 48.5841 64.8605 48.4335C65.3012 48.1764 65.742 47.912 66.1791 47.6512L67.3507 46.957C67.6739 46.766 67.9972 46.5824 68.3241 46.3987C68.5371 46.2775 68.7538 46.16 68.9668 46.0461C69.2313 45.9065 69.4774 45.778 69.7161 45.6604C69.4884 45.4878 69.2092 45.3593 68.9044 45.2197C68.684 45.1168 68.4563 45.014 68.2359 44.8855C65.3233 43.1922 62.4106 41.499 59.498 39.8058C56.4604 38.0391 53.4229 36.2761 50.3891 34.5057C50.1466 34.3661 49.941 34.3698 49.6765 34.5241L49.4194 34.6747C43.3884 38.2154 37.1518 41.8736 30.9151 45.3078C30.691 45.4327 30.5074 45.5613 30.3605 45.7008L33.4972 47.4528C33.5119 47.4602 33.5229 47.4675 33.5376 47.4749C38.5254 50.3618 43.517 53.2414 48.5122 56.1173C48.9052 56.3414 49.3019 56.5581 49.6985 56.7711L49.9814 56.9254C50.558 56.6022 51.1383 56.2826 51.715 55.9631C53.1731 55.1513 54.6864 54.3139 56.1593 53.4728Z" fill="white"/>
</svg>
